<?xml version="1.0" encoding="UTF-8"?>
<svg xmlns="http://www.w3.org/2000/svg" xmlns:xlink="http://www.w3.org/1999/xlink" width="256pt" height="256pt" viewBox="0 0 256 256" version="1.1">
<g id="surface1">
<path style=" stroke:none;fill-rule:nonzero;fill:rgb(100%,100%,100%);fill-opacity:1;" d="M 176 128 C 176 139.101562 175.398438 149.800781 174.351562 160 L 81.648438 160 C 80.550781 149.800781 80 139.101562 80 128 C 80 116.898438 80.601562 106.199219 81.648438 96 L 174.351562 96 C 175.449219 106.199219 176 116.898438 176 128 Z M 190.398438 96 L 251.949219 96 C 254.601562 106.25 256 116.949219 256 128 C 256 139.050781 254.601562 149.75 251.949219 160 L 190.398438 160 C 191.449219 149.699219 192 139 192 128 C 192 117 191.449219 106.300781 190.398438 96 Z M 246.699219 80 L 188.351562 80 C 183.351562 48.050781 173.449219 21.300781 160.699219 4.199219 C 199.851562 14.550781 231.699219 42.949219 246.648438 80 Z M 172.148438 80 L 83.851562 80 C 86.898438 61.800781 91.601562 45.699219 97.351562 32.648438 C 102.601562 20.851562 108.449219 12.300781 114.101562 6.898438 C 119.699219 1.601562 124.351562 0 128 0 C 131.648438 0 136.300781 1.601562 141.898438 6.898438 C 147.550781 12.300781 153.398438 20.851562 158.648438 32.648438 C 164.449219 45.648438 169.148438 61.75 172.148438 80 Z M 67.648438 80 L 9.300781 80 C 24.300781 42.949219 56.101562 14.550781 95.300781 4.199219 C 82.550781 21.300781 72.648438 48.050781 67.648438 80 Z M 4.050781 96 L 65.601562 96 C 64.550781 106.300781 64 117 64 128 C 64 139 64.550781 149.699219 65.601562 160 L 4.050781 160 C 1.398438 149.75 0 139.050781 0 128 C 0 116.949219 1.398438 106.25 4.050781 96 Z M 97.351562 223.300781 C 91.550781 210.300781 86.898438 194.199219 83.851562 176 L 172.148438 176 C 169.101562 194.199219 164.398438 210.300781 158.648438 223.300781 C 153.398438 235.101562 147.550781 243.648438 141.898438 249.050781 C 136.300781 254.398438 131.648438 256 128 256 C 124.351562 256 119.699219 254.398438 114.101562 249.101562 C 108.449219 243.699219 102.601562 235.148438 97.351562 223.351562 Z M 67.648438 176 C 72.648438 207.949219 82.550781 234.699219 95.300781 251.800781 C 56.101562 241.449219 24.300781 213.050781 9.300781 176 Z M 246.699219 176 C 231.699219 213.050781 199.898438 241.449219 160.75 251.800781 C 173.5 234.699219 183.351562 207.949219 188.398438 176 Z M 246.699219 176 "/>
</g>
</svg>
